<svg width="201" height="201" viewBox="0 0 201 201" fill="none" xmlns="http://www.w3.org/2000/svg">
<path d="M201 123.79V77.2095H180.582C178.881 71.3509 176.54 65.708 173.588 60.3492L188.033 45.9045L155.096 12.9671L140.651 27.4119C135.292 24.4596 129.649 22.119 123.79 20.4184V0H77.2094V20.4184C71.3507 22.1186 65.7079 24.4596 60.3491 27.4119L45.9044 12.9671L12.967 45.9045L27.4118 60.3492C24.4595 65.708 22.119 71.3509 20.4184 77.2095H0V123.79H20.4184C22.119 129.649 24.4595 135.292 27.4118 140.651L12.967 155.096L45.9044 188.033L60.3491 173.588C65.7079 176.54 71.3507 178.881 77.2094 180.582V201H123.79V180.582C129.649 178.881 135.292 176.54 140.651 173.588L155.096 188.033L188.033 155.096L173.588 140.651C176.54 135.292 178.881 129.649 180.582 123.79H201ZM100.5 157.776C68.918 157.776 43.224 132.082 43.224 100.5C43.224 68.9181 68.918 43.2241 100.5 43.2241C132.082 43.2241 157.776 68.9181 157.776 100.5C157.776 132.082 132.082 157.776 100.5 157.776Z" fill="#F2E7DC"/>
<circle cx="101" cy="101" r="56" stroke="#0a1931" stroke-width="20"/>
<path d="M101 55C75.6355 55 55 75.6355 55 101C55 126.364 75.6355 147 101 147C126.364 147 147 126.364 147 101C147 75.6355 126.364 55 101 55ZM132.392 93.9003C129.044 97.2488 124.645 98.9235 120.246 98.9235C117.789 98.9235 115.333 98.3999 113.059 97.3555L97.3551 113.06C100.27 119.405 99.1195 127.174 93.9003 132.393L89.4982 136.795L81.084 128.381L85.4861 123.979C86.4829 122.982 87.0318 121.657 87.0318 120.247C87.0318 118.838 86.4829 117.512 85.4861 116.515C84.4889 115.518 83.1636 114.969 81.7535 114.969C80.3438 114.969 79.0182 115.518 78.0214 116.515L73.6197 120.917L65.2051 112.503L69.6068 108.101C74.8264 102.882 82.5956 101.731 88.9405 104.646L104.644 88.9421C101.729 82.5968 102.881 74.8276 108.099 69.6088L112.501 65.2067L120.916 73.6213L116.514 78.023C114.456 80.0808 114.456 83.429 116.514 85.4869C118.572 87.5447 121.92 87.5447 123.978 85.4869L128.38 81.0852L136.794 89.4994L132.392 93.9003Z" fill="#F2E7DC"/>
</svg>
