<svg width="42" height="42" viewBox="0 0 42 42" fill="none" xmlns="http://www.w3.org/2000/svg">
<rect x="0.85022" y="0.751465" width="40.2995" height="40.3734" rx="20.1497" fill="url(#paint0_linear)"/>
<path d="M21.0458 6.97589C15.318 6.97589 9.87889 6.46637 7.80136 11.7982C6.94322 14.0004 7.06784 16.8603 7.06784 20.9555C7.06784 24.5489 6.95268 27.9263 7.80136 30.1111C9.87416 35.4461 15.3575 34.935 21.0427 34.935C26.5275 34.935 32.1828 35.5061 34.2856 30.1111C35.1453 27.8869 35.0191 25.0695 35.0191 20.9555C35.0191 15.4942 35.3204 11.9686 32.6718 9.32159C29.9901 6.63989 26.3635 6.97589 21.0395 6.97589H21.0458ZM19.7933 9.49512C31.7411 9.47619 33.2618 8.14796 32.4226 26.5997C32.1244 33.1257 27.1554 32.4095 21.0474 32.4095C9.91044 32.4095 9.59022 32.0908 9.59022 20.9491C9.59022 9.6781 10.4736 9.50143 19.7933 9.49196V9.49512ZM28.5073 11.8156C27.5813 11.8156 26.8304 12.5665 26.8304 13.4924C26.8304 14.4184 27.5813 15.1693 28.5073 15.1693C29.4332 15.1693 30.1841 14.4184 30.1841 13.4924C30.1841 12.5665 29.4332 11.8156 28.5073 11.8156ZM21.0458 13.7764C17.0816 13.7764 13.8683 16.9913 13.8683 20.9555C13.8683 24.9196 17.0816 28.133 21.0458 28.133C25.01 28.133 28.2217 24.9196 28.2217 20.9555C28.2217 16.9913 25.01 13.7764 21.0458 13.7764ZM21.0458 16.2956C27.2059 16.2956 27.2137 25.6153 21.0458 25.6153C14.8874 25.6153 14.8779 16.2956 21.0458 16.2956Z" fill="white"/>
<defs>
<linearGradient id="paint0_linear" x1="36.5652" y1="7.92404" x2="6.98757" y2="36.4664" gradientUnits="userSpaceOnUse">
<stop stop-color="#FFD955"/>
<stop offset="0.500524" stop-color="#FF573F"/>
<stop offset="1" stop-color="#CD3AA1"/>
</linearGradient>
</defs>
</svg>
