<svg width="771" height="771" viewBox="0 0 771 771" fill="none" xmlns="http://www.w3.org/2000/svg">
<g style="mix-blend-mode:overlay">
<path d="M529.06 512.411V389.355H241.942V463.478H0V771H771V512.411H529.06ZM241.942 725.825H45.1758V508.654H241.942V725.825ZM483.884 725.825H287.118V463.478V434.531H483.884V512.413V725.825ZM725.824 725.825H529.06V557.587H725.824V725.825Z" fill="#EDD3BA"/>
<path d="M303.985 250.881L385.5 224.908L467.015 250.881L467.505 165.328L517.395 95.8284L436.181 68.9277L385.5 0L334.819 68.9262L253.605 95.8269L303.496 165.327L303.985 250.881ZM362.688 107.285L385.5 76.2597L408.313 107.285L444.867 119.394L422.41 150.676L422.191 189.184L385.5 177.494L348.809 189.186L348.589 150.678L326.132 119.395L362.688 107.285Z" fill="#EDD3BA"/>
<path d="M76.8414 339.037L143.558 317.781L210.277 339.037L210.678 269.015L251.512 212.131L185.04 190.112L143.56 133.7L102.08 190.112L35.6079 212.131L76.4408 269.015L76.8414 339.037ZM129.947 228.471L143.56 209.959L157.173 228.471L178.985 235.696L165.585 254.363L165.454 277.341L143.56 270.364L121.665 277.341L121.534 254.363L108.135 235.696L129.947 228.471Z" fill="#EDD3BA"/>
<path d="M560.723 339.037L627.442 317.781L694.159 339.037L694.561 269.015L735.394 212.131L668.922 190.112L627.442 133.7L585.961 190.112L519.49 212.131L560.324 269.015L560.723 339.037ZM613.829 228.471L627.442 209.959L641.055 228.471L662.867 235.696L649.468 254.363L649.337 277.341L627.442 270.364L605.548 277.341L605.417 254.363L592.016 235.696L613.829 228.471Z" fill="#EDD3BA"/>
</g>
</svg>
