<svg width="41" height="41" viewBox="0 0 41 41" fill="none" xmlns="http://www.w3.org/2000/svg">
<path d="M20.1497 0C31.2787 0 40.2995 9.0386 40.2995 20.1868C40.2995 31.335 31.2787 40.3734 20.1497 40.3734C9.02066 40.3734 0 31.3348 0 20.1868C0 9.03874 9.0208 0 20.1497 0Z" fill="#0E76A8"/>
<path d="M11.3544 27.7364H15.1274V15.1373H11.3544V27.7364ZM26.0537 14.7009C24.2225 14.7009 22.5841 15.3708 21.4218 16.8496V15.0959H17.6349V27.7365H21.4218V20.9008C21.4218 19.4562 22.7429 18.0469 24.3977 18.0469C26.0524 18.0469 26.4605 19.4562 26.4605 20.8655V27.7353H30.2336V20.5841C30.2334 15.6168 27.886 14.7009 26.0537 14.7009ZM13.2233 13.8782C14.266 13.8782 15.1124 13.0304 15.1124 11.9857C15.1124 10.941 14.266 10.0933 13.2233 10.0933C12.1805 10.0933 11.3342 10.9411 11.3342 11.9858C11.3342 13.0305 12.1805 13.8782 13.2233 13.8782Z" fill="white"/>
</svg>
