<svg width="137" height="137" viewBox="0 0 137 137" fill="none" xmlns="http://www.w3.org/2000/svg">
<path d="M68.5005 0L25.5815 68.5L68.5005 137C106.332 137 137.001 106.332 137.001 68.5C137.001 30.6685 106.332 0 68.5005 0Z" fill="#111840"/>
<path d="M0 68.5C0 106.332 30.6685 137 68.5 137V0C30.6685 0 0 30.6685 0 68.5Z" fill="#111840"/>
<path d="M68.4999 16.0547L50.8965 44.1504L68.4999 72.2461C84.0168 72.2461 96.5956 59.6672 96.5956 44.1504C96.5956 28.6335 84.0168 16.0547 68.4999 16.0547Z" fill="#F2E7DC"/>
<path d="M40.4043 44.1504C40.4043 59.6672 52.9831 72.2461 68.5 72.2461V16.0547C52.9831 16.0547 40.4043 28.6335 40.4043 44.1504Z" fill="#F2E7DC"/>
<path d="M113.627 89.7572C108.293 83.73 100.622 80.2734 92.582 80.2734H68.5L52.4453 100.609L68.5 120.945C87.3166 120.945 104.793 110.775 114.11 94.4021L115.53 91.9069L113.627 89.7572Z" fill="#F2E7DC"/>
<path d="M44.4179 80.2734C36.3775 80.2734 28.7068 83.73 23.3732 89.7572L21.4707 91.9072L22.8905 94.4024C32.2067 110.775 49.6833 120.945 68.5 120.945V80.2734H44.4179Z" fill="#F2E7DC"/>
</svg>
