<svg width="24" height="21" viewBox="0 0 24 21" fill="none" xmlns="http://www.w3.org/2000/svg">
<path d="M4.96804 0.568115C6.31204 0.568115 7.41604 1.04811 8.28004 2.00811C9.19204 2.92011 9.64804 4.07211 9.64804 5.46412C9.64804 6.18412 9.57604 6.90412 9.43204 7.62411C9.28804 8.29611 8.97604 9.28011 8.49604 10.5761L5.04004 20.6561H0.504043L3.16804 9.92811C2.25604 9.59212 1.51204 9.04012 0.936043 8.27211C0.408043 7.45611 0.144043 6.52011 0.144043 5.46412C0.144043 4.02412 0.600043 2.84811 1.51204 1.93611C2.42404 1.02412 3.57604 0.568115 4.96804 0.568115ZM18.576 0.568115C19.92 0.568115 21.024 1.04811 21.888 2.00811C22.8 2.92011 23.256 4.07211 23.256 5.46412C23.256 6.18412 23.184 6.90412 23.04 7.62411C22.896 8.29611 22.584 9.28011 22.104 10.5761L18.648 20.6561H14.112L16.776 9.92811C15.864 9.59212 15.12 9.04012 14.544 8.27211C14.016 7.45611 13.752 6.52011 13.752 5.46412C13.752 4.02412 14.208 2.84811 15.12 1.93611C16.032 1.02412 17.184 0.568115 18.576 0.568115Z" fill="#262626"/>
</svg>
