<svg width="24" height="21" viewBox="0 0 24 21" fill="none" xmlns="http://www.w3.org/2000/svg">
<path d="M6.552 10.728C7.512 11.064 8.256 11.616 8.784 12.384C9.312 13.152 9.576 14.088 9.576 15.192C9.576 16.632 9.12 17.808 8.208 18.72C7.296 19.632 6.168 20.088 4.824 20.088C3.432 20.088 2.28 19.632 1.368 18.72C0.456 17.76 0 16.584 0 15.192C0 14.52 0.072 13.848 0.216 13.176C0.408 12.456 0.768 11.424 1.296 10.08L4.68 0H9.216L6.552 10.728ZM20.16 10.728C21.12 11.064 21.864 11.616 22.392 12.384C22.92 13.152 23.184 14.088 23.184 15.192C23.184 16.632 22.728 17.808 21.816 18.72C20.904 19.632 19.776 20.088 18.432 20.088C17.04 20.088 15.888 19.632 14.976 18.72C14.064 17.76 13.608 16.584 13.608 15.192C13.608 14.52 13.68 13.848 13.824 13.176C14.016 12.456 14.376 11.424 14.904 10.08L18.288 0H22.824L20.16 10.728Z" fill="#262626"/>
</svg>
