<svg width="41" height="42" viewBox="0 0 41 42" fill="none" xmlns="http://www.w3.org/2000/svg">
<rect y="0.703125" width="40.2995" height="40.3734" rx="20.1497" fill="#111840"/>
<path d="M30.2257 11.0724C27.5441 8.3908 23.9789 6.91406 20.1867 6.91406C16.3945 6.91406 12.8292 8.3908 10.1477 11.0723C7.46618 13.7538 5.98944 17.3191 5.98944 21.1113C5.98944 24.9035 7.46618 28.4688 10.1477 31.1503C12.8292 33.8318 16.3945 35.3085 20.1867 35.3085C23.979 35.3085 27.5441 33.8318 30.2257 31.1502C32.9072 28.4688 34.3839 24.9035 34.3839 21.1113C34.3839 17.319 32.9072 13.7538 30.2257 11.0724ZM11.3254 12.25C12.5738 11.0016 14.0394 10.0494 15.6368 9.42786C15.2113 9.95904 14.8132 10.5696 14.4483 11.2563C14.0246 12.0537 13.659 12.9296 13.3544 13.8651C12.2995 13.69 11.3221 13.4747 10.4488 13.2221C10.7225 12.8857 11.0145 12.5609 11.3254 12.25ZM9.44054 14.6552C10.4619 14.9822 11.63 15.258 12.9045 15.4764C12.5496 16.983 12.3407 18.6042 12.2908 20.2786H7.68291C7.81379 18.2692 8.41728 16.3515 9.44054 14.6552ZM9.34986 27.4135C8.38184 25.7553 7.80985 23.8929 7.68285 21.944H12.294C12.3484 23.5705 12.5532 25.1457 12.8961 26.6128C11.5954 26.8237 10.398 27.0925 9.34986 27.4135ZM11.3254 29.9726C10.9716 29.6187 10.642 29.2472 10.3365 28.8604C11.2418 28.6094 12.2538 28.3968 13.3431 28.2264C13.6498 29.1749 14.0194 30.0623 14.4483 30.8696C14.8459 31.6179 15.2831 32.2754 15.7521 32.8386C14.11 32.2184 12.6038 31.2509 11.3254 29.9726ZM19.3539 33.4294C18.089 33.0751 16.8925 31.92 15.9191 30.0881C15.5786 29.4474 15.2796 28.7485 15.0234 28.0036C16.3949 27.8526 17.8543 27.7634 19.3539 27.7424V33.4294ZM19.3539 26.0769C17.6909 26.0995 16.0699 26.204 14.5518 26.3823C14.217 24.998 14.0155 23.4997 13.9602 21.9441H19.354V26.0769H19.3539ZM19.3539 20.2786H13.957C14.0076 18.6795 14.2123 17.1394 14.5575 15.7199C16.0659 15.9084 17.6835 16.0231 19.3539 16.0559V20.2786ZM19.3539 14.3902C17.8485 14.3599 16.3923 14.2618 15.0305 14.1016C15.2851 13.3644 15.5818 12.6725 15.9191 12.0377C16.8924 10.2058 18.089 9.05075 19.3539 8.69643V14.3902ZM30.9853 14.7436C31.9766 16.4181 32.5618 18.304 32.6906 20.2786H28.0827C28.0334 18.6235 27.8285 17.0205 27.481 15.5287C28.7639 15.3216 29.9464 15.058 30.9853 14.7436ZM29.0479 12.25C29.3823 12.5844 29.6946 12.9349 29.986 13.2987C29.0946 13.5421 28.1019 13.7487 27.0354 13.915C26.7277 12.9607 26.3564 12.0679 25.9251 11.2563C25.5602 10.5696 25.1621 9.95904 24.7366 9.42786C26.3339 10.0494 27.7996 11.0016 29.0479 12.25ZM21.0195 21.9441H26.4132C26.3576 23.5118 26.1534 25.0214 25.8137 26.4147C24.3056 26.2272 22.6887 26.1135 21.0195 26.0816V21.9441ZM21.0195 20.2786V16.0615C22.6835 16.0396 24.3057 15.9361 25.8252 15.7585C26.1649 17.1673 26.3663 18.694 26.4163 20.2786H21.0195ZM21.0193 8.69643H21.0194C22.2843 9.05075 23.4808 10.2058 24.4542 12.0377C24.7969 12.6825 25.0976 13.3863 25.3549 14.1367C23.9816 14.2871 22.5205 14.3757 21.0193 14.3959V8.69643ZM21.0195 33.4294V27.7473C22.5235 27.7768 23.9785 27.874 25.3398 28.0332C25.0859 28.767 24.7902 29.4559 24.4543 30.0881C23.4809 31.92 22.2843 33.0751 21.0195 33.4294ZM29.0479 29.9726C27.7696 31.251 26.2634 32.2184 24.6212 32.8386C25.0902 32.2753 25.5274 31.6179 25.925 30.8696C26.3476 30.0743 26.7124 29.201 27.0165 28.2683C28.096 28.4465 29.0946 28.6668 29.9843 28.926C29.6935 29.289 29.3817 29.6388 29.0479 29.9726ZM30.9792 27.4895C29.9457 27.1572 28.7608 26.8777 27.4672 26.6571C27.8164 25.1774 28.0245 23.5869 28.0795 21.9441H32.6906C32.5615 23.9227 31.9742 25.8124 30.9792 27.4895Z" fill="white"/>
</svg>
